%TF.GenerationSoftware,KiCad,Pcbnew,9.0.3*%
%TF.CreationDate,2025-12-16T11:33:00+01:00*%
%TF.ProjectId,PTP_Adrian_Pavlovic_Project1,5054505f-4164-4726-9961-6e5f5061766c,rev?*%
%TF.SameCoordinates,Original*%
%TF.FileFunction,Copper,L1,Top*%
%TF.FilePolarity,Positive*%
%FSLAX46Y46*%
G04 Gerber Fmt 4.6, Leading zero omitted, Abs format (unit mm)*
G04 Created by KiCad (PCBNEW 9.0.3) date 2025-12-16 11:33:00*
%MOMM*%
%LPD*%
G01*
G04 APERTURE LIST*
G04 Aperture macros list*
%AMRoundRect*
0 Rectangle with rounded corners*
0 $1 Rounding radius*
0 $2 $3 $4 $5 $6 $7 $8 $9 X,Y pos of 4 corners*
0 Add a 4 corners polygon primitive as box body*
4,1,4,$2,$3,$4,$5,$6,$7,$8,$9,$2,$3,0*
0 Add four circle primitives for the rounded corners*
1,1,$1+$1,$2,$3*
1,1,$1+$1,$4,$5*
1,1,$1+$1,$6,$7*
1,1,$1+$1,$8,$9*
0 Add four rect primitives between the rounded corners*
20,1,$1+$1,$2,$3,$4,$5,0*
20,1,$1+$1,$4,$5,$6,$7,0*
20,1,$1+$1,$6,$7,$8,$9,0*
20,1,$1+$1,$8,$9,$2,$3,0*%
G04 Aperture macros list end*
%TA.AperFunction,ComponentPad*%
%ADD10RoundRect,0.250000X-0.950000X-0.550000X0.950000X-0.550000X0.950000X0.550000X-0.950000X0.550000X0*%
%TD*%
%TA.AperFunction,ComponentPad*%
%ADD11O,2.400000X1.600000*%
%TD*%
%TA.AperFunction,ComponentPad*%
%ADD12RoundRect,0.250000X-0.550000X-0.550000X0.550000X-0.550000X0.550000X0.550000X-0.550000X0.550000X0*%
%TD*%
%TA.AperFunction,ComponentPad*%
%ADD13C,1.600000*%
%TD*%
%TA.AperFunction,ComponentPad*%
%ADD14R,1.800000X1.800000*%
%TD*%
%TA.AperFunction,ComponentPad*%
%ADD15C,1.800000*%
%TD*%
%TA.AperFunction,SMDPad,CuDef*%
%ADD16RoundRect,0.250000X0.625000X-0.400000X0.625000X0.400000X-0.625000X0.400000X-0.625000X-0.400000X0*%
%TD*%
%TA.AperFunction,SMDPad,CuDef*%
%ADD17RoundRect,0.250000X-0.400000X-0.625000X0.400000X-0.625000X0.400000X0.625000X-0.400000X0.625000X0*%
%TD*%
%TA.AperFunction,ComponentPad*%
%ADD18C,2.000000*%
%TD*%
%TA.AperFunction,SMDPad,CuDef*%
%ADD19RoundRect,0.250000X-0.625000X0.400000X-0.625000X-0.400000X0.625000X-0.400000X0.625000X0.400000X0*%
%TD*%
%TA.AperFunction,SMDPad,CuDef*%
%ADD20RoundRect,0.150000X0.512500X0.150000X-0.512500X0.150000X-0.512500X-0.150000X0.512500X-0.150000X0*%
%TD*%
%TA.AperFunction,SMDPad,CuDef*%
%ADD21RoundRect,0.250000X0.650000X-0.412500X0.650000X0.412500X-0.650000X0.412500X-0.650000X-0.412500X0*%
%TD*%
%TA.AperFunction,ComponentPad*%
%ADD22R,1.600000X1.600000*%
%TD*%
%TA.AperFunction,ComponentPad*%
%ADD23O,3.500000X2.200000*%
%TD*%
%TA.AperFunction,ComponentPad*%
%ADD24R,2.500000X1.500000*%
%TD*%
%TA.AperFunction,ComponentPad*%
%ADD25O,2.500000X1.500000*%
%TD*%
%TA.AperFunction,ComponentPad*%
%ADD26RoundRect,0.250000X0.550000X-0.550000X0.550000X0.550000X-0.550000X0.550000X-0.550000X-0.550000X0*%
%TD*%
%TA.AperFunction,SMDPad,CuDef*%
%ADD27RoundRect,0.250000X-0.650000X0.412500X-0.650000X-0.412500X0.650000X-0.412500X0.650000X0.412500X0*%
%TD*%
%TA.AperFunction,ComponentPad*%
%ADD28RoundRect,0.250001X1.149999X-1.149999X1.149999X1.149999X-1.149999X1.149999X-1.149999X-1.149999X0*%
%TD*%
%TA.AperFunction,ComponentPad*%
%ADD29C,2.800000*%
%TD*%
%TA.AperFunction,SMDPad,CuDef*%
%ADD30RoundRect,0.250000X0.412500X0.650000X-0.412500X0.650000X-0.412500X-0.650000X0.412500X-0.650000X0*%
%TD*%
%TA.AperFunction,ComponentPad*%
%ADD31C,2.400000*%
%TD*%
%TA.AperFunction,ComponentPad*%
%ADD32RoundRect,0.250000X0.950000X0.550000X-0.950000X0.550000X-0.950000X-0.550000X0.950000X-0.550000X0*%
%TD*%
%TA.AperFunction,ComponentPad*%
%ADD33RoundRect,0.249999X-0.850001X-0.850001X0.850001X-0.850001X0.850001X0.850001X-0.850001X0.850001X0*%
%TD*%
%TA.AperFunction,ComponentPad*%
%ADD34C,2.200000*%
%TD*%
%TA.AperFunction,ComponentPad*%
%ADD35RoundRect,0.250000X0.550000X0.550000X-0.550000X0.550000X-0.550000X-0.550000X0.550000X-0.550000X0*%
%TD*%
%TA.AperFunction,ViaPad*%
%ADD36C,0.700000*%
%TD*%
%TA.AperFunction,Conductor*%
%ADD37C,0.200000*%
%TD*%
%TA.AperFunction,Conductor*%
%ADD38C,0.300000*%
%TD*%
G04 APERTURE END LIST*
D10*
%TO.P,U2,1,Q*%
%TO.N,Q0*%
X120730000Y-107360000D03*
D11*
%TO.P,U2,2,~{Q}*%
%TO.N,unconnected-(U2A-~{Q}-Pad2)*%
X120730000Y-109900000D03*
%TO.P,U2,3,C*%
%TO.N,Clock*%
X120730000Y-112440000D03*
%TO.P,U2,4,R*%
%TO.N,Reset*%
X120730000Y-114980000D03*
%TO.P,U2,5,K*%
%TO.N,Net-(U2A-J)*%
X120730000Y-117520000D03*
%TO.P,U2,6,J*%
X120730000Y-120060000D03*
%TO.P,U2,7,S*%
%TO.N,GND*%
X120730000Y-122600000D03*
%TO.P,U2,8,VSS*%
X120730000Y-125140000D03*
%TO.P,U2,9,S*%
X128350000Y-125140000D03*
%TO.P,U2,10,J*%
%TO.N,Net-(U2B-J)*%
X128350000Y-122600000D03*
%TO.P,U2,11,K*%
X128350000Y-120060000D03*
%TO.P,U2,12,R*%
%TO.N,Reset*%
X128350000Y-117520000D03*
%TO.P,U2,13,C*%
%TO.N,Q0*%
X128350000Y-114980000D03*
%TO.P,U2,14,~{Q}*%
%TO.N,unconnected-(U2B-~{Q}-Pad14)*%
X128350000Y-112440000D03*
%TO.P,U2,15,Q*%
%TO.N,Q1*%
X128350000Y-109900000D03*
%TO.P,U2,16,VDD*%
%TO.N,+5V*%
X128350000Y-107360000D03*
%TD*%
D12*
%TO.P,U7,1,GND*%
%TO.N,GND*%
X89445000Y-119690000D03*
D13*
%TO.P,U7,2,TR*%
%TO.N,Net-(U7-THR)*%
X89445000Y-122230000D03*
%TO.P,U7,3,Q*%
%TO.N,555*%
X89445000Y-124770000D03*
%TO.P,U7,4,R*%
%TO.N,+5V*%
X89445000Y-127310000D03*
%TO.P,U7,5,CV*%
%TO.N,unconnected-(U7-CV-Pad5)*%
X97065000Y-127310000D03*
%TO.P,U7,6,THR*%
%TO.N,Net-(U7-THR)*%
X97065000Y-124770000D03*
%TO.P,U7,7,DIS*%
%TO.N,Net-(U7-DIS)*%
X97065000Y-122230000D03*
%TO.P,U7,8,VCC*%
%TO.N,+5V*%
X97065000Y-119690000D03*
%TD*%
D14*
%TO.P,D1,1,K*%
%TO.N,Net-(D1-K)*%
X151250000Y-91725000D03*
D15*
%TO.P,D1,2,A*%
%TO.N,Q0*%
X151250000Y-94265000D03*
%TD*%
D16*
%TO.P,R9,1*%
%TO.N,+5V*%
X137500000Y-135350000D03*
%TO.P,R9,2*%
%TO.N,Net-(U2A-J)*%
X137500000Y-132250000D03*
%TD*%
D17*
%TO.P,R16,1*%
%TO.N,Net-(U4-e)*%
X158900000Y-115560000D03*
%TO.P,R16,2*%
%TO.N,Net-(U5-E)*%
X162000000Y-115560000D03*
%TD*%
D18*
%TO.P,SW1,1,1*%
%TO.N,GND*%
X140000000Y-143250000D03*
X133500000Y-143250000D03*
%TO.P,SW1,2,2*%
%TO.N,Net-(R13-Pad1)*%
X140000000Y-138750000D03*
X133500000Y-138750000D03*
%TD*%
D13*
%TO.P,R1,1*%
%TO.N,Net-(D1-K)*%
X151250000Y-84580000D03*
%TO.P,R1,2*%
%TO.N,GND*%
X151250000Y-74420000D03*
%TD*%
D16*
%TO.P,R11,1*%
%TO.N,+5V*%
X144000000Y-135550000D03*
%TO.P,R11,2*%
%TO.N,Net-(U3A-J)*%
X144000000Y-132450000D03*
%TD*%
D17*
%TO.P,R15,1*%
%TO.N,+5V*%
X158900000Y-105560000D03*
%TO.P,R15,2*%
%TO.N,Net-(U4-BI)*%
X162000000Y-105560000D03*
%TD*%
D19*
%TO.P,R19,1*%
%TO.N,+5V*%
X86000000Y-119700000D03*
%TO.P,R19,2*%
%TO.N,Net-(U7-DIS)*%
X86000000Y-122800000D03*
%TD*%
D14*
%TO.P,D2,1,K*%
%TO.N,Net-(D2-K)*%
X143000000Y-92000000D03*
D15*
%TO.P,D2,2,A*%
%TO.N,Q1*%
X143000000Y-94540000D03*
%TD*%
D17*
%TO.P,R8,1*%
%TO.N,Net-(U4-c)*%
X159450000Y-125250000D03*
%TO.P,R8,2*%
%TO.N,Net-(U5-C)*%
X162550000Y-125250000D03*
%TD*%
D14*
%TO.P,D3,1,K*%
%TO.N,Net-(D3-K)*%
X134500000Y-92000000D03*
D15*
%TO.P,D3,2,A*%
%TO.N,Q2*%
X134500000Y-94540000D03*
%TD*%
D20*
%TO.P,U6,1,A*%
%TO.N,Q1*%
X113025000Y-118950000D03*
%TO.P,U6,2,GND*%
%TO.N,GND*%
X113025000Y-118000000D03*
%TO.P,U6,3,B*%
%TO.N,Q3*%
X113025000Y-117050000D03*
%TO.P,U6,4,Y*%
%TO.N,Reset*%
X110750000Y-117050000D03*
%TO.P,U6,5,VCC*%
%TO.N,+5V*%
X110750000Y-118000000D03*
%TO.P,U6,6,C*%
%TO.N,Clock*%
X110750000Y-118950000D03*
%TD*%
D17*
%TO.P,R6,1*%
%TO.N,Net-(U4-b)*%
X159200000Y-121250000D03*
%TO.P,R6,2*%
%TO.N,Net-(U5-B)*%
X162300000Y-121250000D03*
%TD*%
%TO.P,R14,1*%
%TO.N,Net-(U4-d)*%
X159450000Y-128500000D03*
%TO.P,R14,2*%
%TO.N,Net-(U5-D)*%
X162550000Y-128500000D03*
%TD*%
%TO.P,R17,1*%
%TO.N,Net-(U4-f)*%
X158900000Y-109000000D03*
%TO.P,R17,2*%
%TO.N,Net-(U5-F)*%
X162000000Y-109000000D03*
%TD*%
D21*
%TO.P,C3,1*%
%TO.N,GND*%
X127000000Y-135375000D03*
%TO.P,C3,2*%
%TO.N,Net-(SW2-A)*%
X127000000Y-132250000D03*
%TD*%
D22*
%TO.P,U5,1,CA*%
%TO.N,+5V*%
X166750000Y-110250000D03*
D13*
%TO.P,U5,2,F*%
%TO.N,Net-(U5-F)*%
X166750000Y-112790000D03*
%TO.P,U5,3,G*%
%TO.N,Net-(U5-G)*%
X166750000Y-115330000D03*
%TO.P,U5,4,E*%
%TO.N,Net-(U5-E)*%
X166750000Y-117870000D03*
%TO.P,U5,5,D*%
%TO.N,Net-(U5-D)*%
X166750000Y-120410000D03*
%TO.P,U5,6,CA*%
%TO.N,+5V*%
X171830000Y-120410000D03*
%TO.P,U5,7,DP*%
%TO.N,unconnected-(U5-DP-Pad7)*%
X171830000Y-117870000D03*
%TO.P,U5,8,C*%
%TO.N,Net-(U5-C)*%
X171830000Y-115330000D03*
%TO.P,U5,9,B*%
%TO.N,Net-(U5-B)*%
X171830000Y-112790000D03*
%TO.P,U5,10,A*%
%TO.N,Net-(U5-A)*%
X171830000Y-110250000D03*
%TD*%
D23*
%TO.P,SW2,*%
%TO.N,*%
X104000000Y-114650000D03*
X104000000Y-122850000D03*
D24*
%TO.P,SW2,1,B*%
%TO.N,Clock*%
X104000000Y-116750000D03*
D25*
%TO.P,SW2,2,C*%
%TO.N,555*%
X104000000Y-118750000D03*
%TO.P,SW2,3,A*%
%TO.N,Net-(SW2-A)*%
X104000000Y-120750000D03*
%TD*%
D26*
%TO.P,C2,1*%
%TO.N,+5V*%
X118500000Y-83000000D03*
D13*
%TO.P,C2,2*%
%TO.N,GND*%
X118500000Y-81000000D03*
%TD*%
D27*
%TO.P,C5,1*%
%TO.N,Net-(U7-THR)*%
X100500000Y-126937500D03*
%TO.P,C5,2*%
%TO.N,GND*%
X100500000Y-130062500D03*
%TD*%
D13*
%TO.P,R4,1*%
%TO.N,Net-(D5-K)*%
X125250000Y-84830000D03*
%TO.P,R4,2*%
%TO.N,GND*%
X125250000Y-74670000D03*
%TD*%
D28*
%TO.P,J1,1,Pin_1*%
%TO.N,GND*%
X90367500Y-97250000D03*
D29*
%TO.P,J1,2,Pin_2*%
%TO.N,VD*%
X90367500Y-92250000D03*
%TD*%
D14*
%TO.P,D5,1,K*%
%TO.N,Net-(D5-K)*%
X125750000Y-91975000D03*
D15*
%TO.P,D5,2,A*%
%TO.N,Q3*%
X125750000Y-94515000D03*
%TD*%
D10*
%TO.P,U3,1,Q*%
%TO.N,Q2*%
X132440000Y-107360000D03*
D11*
%TO.P,U3,2,~{Q}*%
%TO.N,unconnected-(U3A-~{Q}-Pad2)*%
X132440000Y-109900000D03*
%TO.P,U3,3,C*%
%TO.N,Q1*%
X132440000Y-112440000D03*
%TO.P,U3,4,R*%
%TO.N,Reset*%
X132440000Y-114980000D03*
%TO.P,U3,5,K*%
%TO.N,Net-(U3A-J)*%
X132440000Y-117520000D03*
%TO.P,U3,6,J*%
X132440000Y-120060000D03*
%TO.P,U3,7,S*%
%TO.N,GND*%
X132440000Y-122600000D03*
%TO.P,U3,8,VSS*%
X132440000Y-125140000D03*
%TO.P,U3,9,S*%
X140060000Y-125140000D03*
%TO.P,U3,10,J*%
%TO.N,Net-(U3B-J)*%
X140060000Y-122600000D03*
%TO.P,U3,11,K*%
X140060000Y-120060000D03*
%TO.P,U3,12,R*%
%TO.N,Reset*%
X140060000Y-117520000D03*
%TO.P,U3,13,C*%
%TO.N,Q2*%
X140060000Y-114980000D03*
%TO.P,U3,14,~{Q}*%
%TO.N,unconnected-(U3B-~{Q}-Pad14)*%
X140060000Y-112440000D03*
%TO.P,U3,15,Q*%
%TO.N,Q3*%
X140060000Y-109900000D03*
%TO.P,U3,16,VDD*%
%TO.N,+5V*%
X140060000Y-107360000D03*
%TD*%
D10*
%TO.P,U4,1,B*%
%TO.N,Q1*%
X144150000Y-107360000D03*
D11*
%TO.P,U4,2,C*%
%TO.N,Q2*%
X144150000Y-109900000D03*
%TO.P,U4,3,LT*%
%TO.N,Net-(U4-BI)*%
X144150000Y-112440000D03*
%TO.P,U4,4,BI*%
X144150000Y-114980000D03*
%TO.P,U4,5,RBI*%
X144150000Y-117520000D03*
%TO.P,U4,6,D*%
%TO.N,Q3*%
X144150000Y-120060000D03*
%TO.P,U4,7,A*%
%TO.N,Q0*%
X144150000Y-122600000D03*
%TO.P,U4,8,GND*%
%TO.N,GND*%
X144150000Y-125140000D03*
%TO.P,U4,9,e*%
%TO.N,Net-(U4-e)*%
X151770000Y-125140000D03*
%TO.P,U4,10,d*%
%TO.N,Net-(U4-d)*%
X151770000Y-122600000D03*
%TO.P,U4,11,c*%
%TO.N,Net-(U4-c)*%
X151770000Y-120060000D03*
%TO.P,U4,12,b*%
%TO.N,Net-(U4-b)*%
X151770000Y-117520000D03*
%TO.P,U4,13,a*%
%TO.N,Net-(U4-a)*%
X151770000Y-114980000D03*
%TO.P,U4,14,g*%
%TO.N,Net-(U4-g)*%
X151770000Y-112440000D03*
%TO.P,U4,15,f*%
%TO.N,Net-(U4-f)*%
X151770000Y-109900000D03*
%TO.P,U4,16,VCC*%
%TO.N,+5V*%
X151770000Y-107360000D03*
%TD*%
D17*
%TO.P,R18,1*%
%TO.N,Net-(U4-g)*%
X158900000Y-112310000D03*
%TO.P,R18,2*%
%TO.N,Net-(U5-G)*%
X162000000Y-112310000D03*
%TD*%
D16*
%TO.P,R12,1*%
%TO.N,+5V*%
X147250000Y-135550000D03*
%TO.P,R12,2*%
%TO.N,Net-(U3B-J)*%
X147250000Y-132450000D03*
%TD*%
D30*
%TO.P,C4,1*%
%TO.N,+5V*%
X94812500Y-131000000D03*
%TO.P,C4,2*%
%TO.N,GND*%
X91687500Y-131000000D03*
%TD*%
D31*
%TO.P,L1,1,1*%
%TO.N,Net-(D4-K)*%
X116000000Y-93000000D03*
%TO.P,L1,2,2*%
%TO.N,+5V*%
X116000000Y-90000000D03*
%TD*%
D32*
%TO.P,U1,1,FB*%
%TO.N,+5V*%
X111060000Y-87060000D03*
D11*
%TO.P,U1,2,SGND*%
%TO.N,GND*%
X111060000Y-84520000D03*
%TO.P,U1,3,~{ON}/OFF*%
X111060000Y-81980000D03*
%TO.P,U1,4,PGND*%
X111060000Y-79440000D03*
%TO.P,U1,5,VIN*%
%TO.N,VD*%
X103440000Y-79440000D03*
%TO.P,U1,6,NC*%
%TO.N,unconnected-(U1-NC-Pad6)*%
X103440000Y-81980000D03*
%TO.P,U1,7,OUT*%
%TO.N,Net-(D4-K)*%
X103440000Y-84520000D03*
%TO.P,U1,8,NC*%
%TO.N,unconnected-(U1-NC-Pad8)*%
X103440000Y-87060000D03*
%TD*%
D16*
%TO.P,R7,1*%
%TO.N,+5V*%
X134250000Y-135300000D03*
%TO.P,R7,2*%
%TO.N,Clock*%
X134250000Y-132200000D03*
%TD*%
%TO.P,R13,1*%
%TO.N,Net-(R13-Pad1)*%
X130750000Y-135300000D03*
%TO.P,R13,2*%
%TO.N,Net-(SW2-A)*%
X130750000Y-132200000D03*
%TD*%
%TO.P,R10,1*%
%TO.N,+5V*%
X140750000Y-135300000D03*
%TO.P,R10,2*%
%TO.N,Net-(U2B-J)*%
X140750000Y-132200000D03*
%TD*%
D17*
%TO.P,R5,1*%
%TO.N,Net-(U4-a)*%
X159100000Y-118560000D03*
%TO.P,R5,2*%
%TO.N,Net-(U5-A)*%
X162200000Y-118560000D03*
%TD*%
D33*
%TO.P,D4,1,K*%
%TO.N,Net-(D4-K)*%
X102550000Y-74750000D03*
D34*
%TO.P,D4,2,A*%
%TO.N,GND*%
X115250000Y-74750000D03*
%TD*%
D13*
%TO.P,R2,1*%
%TO.N,Net-(D2-K)*%
X142750000Y-84580000D03*
%TO.P,R2,2*%
%TO.N,GND*%
X142750000Y-74420000D03*
%TD*%
D35*
%TO.P,C1,1*%
%TO.N,VD*%
X99000000Y-79000000D03*
D13*
%TO.P,C1,2*%
%TO.N,GND*%
X97000000Y-79000000D03*
%TD*%
D19*
%TO.P,R20,1*%
%TO.N,Net-(U7-DIS)*%
X86000000Y-126450000D03*
%TO.P,R20,2*%
%TO.N,Net-(U7-THR)*%
X86000000Y-129550000D03*
%TD*%
D13*
%TO.P,R3,1*%
%TO.N,Net-(D3-K)*%
X134250000Y-84830000D03*
%TO.P,R3,2*%
%TO.N,GND*%
X134250000Y-74670000D03*
%TD*%
D36*
%TO.N,Net-(U7-DIS)*%
X87500000Y-124500000D03*
X99000000Y-118500000D03*
%TO.N,Net-(U3B-J)*%
X138000000Y-119500000D03*
X137500000Y-122500000D03*
%TO.N,+5V*%
X121000000Y-97000000D03*
X148000000Y-111000000D03*
X135000000Y-107500000D03*
X129000000Y-105000000D03*
X144000000Y-105000000D03*
X146500000Y-107500000D03*
X149650000Y-109500000D03*
X140500000Y-105000000D03*
X87500000Y-127500000D03*
X83500000Y-127500000D03*
X95000000Y-127000000D03*
X95000000Y-123000000D03*
%TO.N,Q2*%
X142000000Y-110500000D03*
X141999000Y-114000000D03*
%TO.N,Net-(U4-BI)*%
X149000000Y-112500000D03*
X146500000Y-112500000D03*
%TO.N,+5V*%
X126250000Y-107750000D03*
X112000000Y-112750000D03*
%TO.N,Net-(U7-THR)*%
X92250000Y-122250000D03*
X93750000Y-124081000D03*
%TO.N,Q1*%
X116000000Y-119250000D03*
X135250000Y-111500000D03*
X136750000Y-110000000D03*
X126250000Y-110250000D03*
%TO.N,Q3*%
X133750000Y-104250000D03*
%TO.N,Net-(U5-A)*%
X169619975Y-112130025D03*
X163750000Y-118750000D03*
%TO.N,Net-(U5-B)*%
X173750000Y-113250000D03*
X164750000Y-120000000D03*
%TO.N,Clock*%
X114250000Y-120000000D03*
X118750000Y-113500000D03*
%TO.N,Net-(U2A-J)*%
X130750000Y-130750000D03*
X136000000Y-132250000D03*
%TO.N,Net-(U4-e)*%
X157500000Y-115750000D03*
X153750000Y-125250000D03*
%TO.N,Reset*%
X119750000Y-113750000D03*
X112250000Y-114500000D03*
X130250000Y-117750000D03*
X130500000Y-115250000D03*
%TD*%
D37*
%TO.N,Net-(U7-DIS)*%
X86000000Y-123000000D02*
X86000000Y-122800000D01*
X87500000Y-124500000D02*
X86000000Y-123000000D01*
X99000000Y-120295000D02*
X99000000Y-118500000D01*
X97065000Y-122230000D02*
X99000000Y-120295000D01*
%TO.N,Net-(U3B-J)*%
X137600000Y-122600000D02*
X140060000Y-122600000D01*
X140060000Y-120060000D02*
X138560000Y-120060000D01*
X138560000Y-120060000D02*
X138000000Y-119500000D01*
X137500000Y-122500000D02*
X137600000Y-122600000D01*
%TO.N,Net-(U2A-J)*%
X120730000Y-117520000D02*
X120730000Y-120060000D01*
D38*
%TO.N,+5V*%
X121000000Y-95000000D02*
X121000000Y-97000000D01*
X116000000Y-90000000D02*
X121000000Y-95000000D01*
X112560000Y-87060000D02*
X111060000Y-87060000D01*
X115500000Y-90000000D02*
X112560000Y-87060000D01*
X116000000Y-90000000D02*
X115500000Y-90000000D01*
D37*
X148000000Y-112448000D02*
X148000000Y-111000000D01*
X148426000Y-112874000D02*
X148000000Y-112448000D01*
X148426000Y-134374000D02*
X148426000Y-112874000D01*
X147250000Y-135550000D02*
X148426000Y-134374000D01*
D38*
X129000000Y-106710000D02*
X128350000Y-107360000D01*
X129000000Y-105000000D02*
X129000000Y-106710000D01*
X135140000Y-107360000D02*
X135000000Y-107500000D01*
X140060000Y-107360000D02*
X135140000Y-107360000D01*
X140500000Y-105000000D02*
X140500000Y-106920000D01*
X144146870Y-105000000D02*
X144000000Y-105000000D01*
X146500000Y-107500000D02*
X146500000Y-107353130D01*
X146500000Y-107353130D02*
X144146870Y-105000000D01*
X151770000Y-107360000D02*
X151770000Y-107380000D01*
X140500000Y-106920000D02*
X140060000Y-107360000D01*
X151770000Y-107380000D02*
X149650000Y-109500000D01*
D37*
X89255000Y-127500000D02*
X89445000Y-127310000D01*
X87500000Y-127500000D02*
X89255000Y-127500000D01*
X83500000Y-122071800D02*
X83500000Y-127500000D01*
X85871800Y-119700000D02*
X83500000Y-122071800D01*
X86000000Y-119700000D02*
X85871800Y-119700000D01*
D38*
X95000000Y-127000000D02*
X91432500Y-127000000D01*
X95000000Y-121755000D02*
X95000000Y-123000000D01*
X97065000Y-119690000D02*
X95000000Y-121755000D01*
X91432500Y-127000000D02*
X91122500Y-127310000D01*
D37*
X137450000Y-135300000D02*
X137500000Y-135350000D01*
X134250000Y-135300000D02*
X137450000Y-135300000D01*
X140700000Y-135350000D02*
X140750000Y-135300000D01*
X137500000Y-135350000D02*
X140700000Y-135350000D01*
X141000000Y-135550000D02*
X140750000Y-135300000D01*
X144000000Y-135550000D02*
X141000000Y-135550000D01*
X144000000Y-135550000D02*
X147250000Y-135550000D01*
D38*
%TO.N,Q2*%
X143550000Y-110500000D02*
X144150000Y-109900000D01*
X142000000Y-110500000D02*
X143550000Y-110500000D01*
X141019000Y-114980000D02*
X141999000Y-114000000D01*
X140060000Y-114980000D02*
X141019000Y-114980000D01*
D37*
%TO.N,Q0*%
X147151000Y-119599000D02*
X144150000Y-122600000D01*
X147151000Y-98364000D02*
X147151000Y-119599000D01*
X151250000Y-94265000D02*
X147151000Y-98364000D01*
%TO.N,Net-(U4-BI)*%
X144210000Y-112500000D02*
X144150000Y-112440000D01*
X146500000Y-112500000D02*
X144210000Y-112500000D01*
X152788951Y-104384000D02*
X149000000Y-108172951D01*
X149000000Y-108172951D02*
X149000000Y-112500000D01*
X160824000Y-104384000D02*
X152788951Y-104384000D01*
X162000000Y-105560000D02*
X160824000Y-104384000D01*
D38*
%TO.N,Net-(R13-Pad1)*%
X133500000Y-138750000D02*
X140000000Y-138750000D01*
D37*
%TO.N,Net-(U2B-J)*%
X128350000Y-120060000D02*
X128350000Y-122600000D01*
%TO.N,Net-(U3A-J)*%
X132440000Y-117520000D02*
X132440000Y-120060000D01*
D38*
%TO.N,Q2*%
X140060000Y-114980000D02*
X140060000Y-114940000D01*
D37*
%TO.N,Net-(U4-BI)*%
X144150000Y-114980000D02*
X144150000Y-117520000D01*
X144150000Y-112440000D02*
X144150000Y-114980000D01*
%TO.N,Q3*%
X142649000Y-118559000D02*
X142649000Y-112489000D01*
X144150000Y-120060000D02*
X142649000Y-118559000D01*
X142649000Y-112489000D02*
X140060000Y-109900000D01*
D38*
%TO.N,+5V*%
X163500000Y-107000000D02*
X166750000Y-110250000D01*
X160340000Y-107000000D02*
X163500000Y-107000000D01*
X158900000Y-105560000D02*
X160340000Y-107000000D01*
X128350000Y-106850000D02*
X128350000Y-107360000D01*
D37*
%TO.N,Net-(D4-K)*%
X104941000Y-83019000D02*
X103440000Y-84520000D01*
X104941000Y-77141000D02*
X104941000Y-83019000D01*
X102550000Y-74750000D02*
X104941000Y-77141000D01*
X111920000Y-93000000D02*
X103440000Y-84520000D01*
X116000000Y-93000000D02*
X111920000Y-93000000D01*
D38*
%TO.N,VD*%
X99000000Y-79000000D02*
X103000000Y-79000000D01*
X90367500Y-92250000D02*
X90367500Y-87632500D01*
X103000000Y-79000000D02*
X103440000Y-79440000D01*
X90367500Y-87632500D02*
X99000000Y-79000000D01*
%TO.N,GND*%
X85568130Y-131000000D02*
X91687500Y-131000000D01*
X84273000Y-129704870D02*
X85568130Y-131000000D01*
X100500000Y-130062500D02*
X98311500Y-132251000D01*
X118500000Y-81000000D02*
X118500000Y-78000000D01*
X118500000Y-78000000D02*
X115250000Y-74750000D01*
X84273000Y-121936610D02*
X84273000Y-129704870D01*
X92938500Y-132251000D02*
X91687500Y-131000000D01*
X133500000Y-143250000D02*
X133500000Y-143000000D01*
X98311500Y-132251000D02*
X92938500Y-132251000D01*
X127000000Y-136500000D02*
X127000000Y-135375000D01*
X120730000Y-122600000D02*
X116130000Y-118000000D01*
X84911610Y-121298000D02*
X84273000Y-121936610D01*
X116130000Y-118000000D02*
X113025000Y-118000000D01*
X89445000Y-119690000D02*
X87837000Y-121298000D01*
X133500000Y-143000000D02*
X127000000Y-136500000D01*
X87837000Y-121298000D02*
X84911610Y-121298000D01*
%TO.N,+5V*%
X158900000Y-105560000D02*
X153570000Y-105560000D01*
X172306760Y-113941000D02*
X170441000Y-113941000D01*
X110750000Y-118000000D02*
X110087501Y-118000000D01*
X89445000Y-127310000D02*
X91122500Y-127310000D01*
X109736500Y-117411678D02*
X109736500Y-115013500D01*
X110324822Y-118000000D02*
X109736500Y-117411678D01*
X97065000Y-118882976D02*
X97065000Y-119690000D01*
X153570000Y-105560000D02*
X151770000Y-107360000D01*
X126250000Y-107750000D02*
X127960000Y-107750000D01*
X170441000Y-113941000D02*
X166750000Y-110250000D01*
X91122500Y-127310000D02*
X94812500Y-131000000D01*
X105286501Y-113199000D02*
X102748976Y-113199000D01*
X174451000Y-117789000D02*
X174451000Y-116085240D01*
X118500000Y-83000000D02*
X118500000Y-87500000D01*
X109736500Y-115013500D02*
X112000000Y-112750000D01*
X110750000Y-118000000D02*
X110324822Y-118000000D01*
X118500000Y-87500000D02*
X116000000Y-90000000D01*
X174451000Y-116085240D02*
X172306760Y-113941000D01*
X110087501Y-118000000D02*
X105286501Y-113199000D01*
X171830000Y-120410000D02*
X174451000Y-117789000D01*
X102748976Y-113199000D02*
X97065000Y-118882976D01*
X127960000Y-107750000D02*
X128350000Y-107360000D01*
%TO.N,Net-(SW2-A)*%
X127000000Y-132250000D02*
X116102024Y-132250000D01*
X127050000Y-132200000D02*
X127000000Y-132250000D01*
X116102024Y-132250000D02*
X104602024Y-120750000D01*
X130750000Y-132200000D02*
X127050000Y-132200000D01*
X104602024Y-120750000D02*
X104000000Y-120750000D01*
%TO.N,Net-(U7-THR)*%
X84774000Y-123000000D02*
X84774000Y-125250000D01*
X89465000Y-122250000D02*
X89445000Y-122230000D01*
X100500000Y-126937500D02*
X99232500Y-126937500D01*
X84774000Y-123000000D02*
X84774000Y-128324000D01*
X97065000Y-124770000D02*
X96376000Y-124081000D01*
X92250000Y-122250000D02*
X89465000Y-122250000D01*
X89014000Y-121799000D02*
X85119130Y-121799000D01*
X85119130Y-121799000D02*
X84774000Y-122144130D01*
X84774000Y-125250000D02*
X84774000Y-127105870D01*
X96376000Y-124081000D02*
X93750000Y-124081000D01*
X84774000Y-128324000D02*
X86000000Y-129550000D01*
X84774000Y-122144130D02*
X84774000Y-123000000D01*
X89445000Y-122230000D02*
X89014000Y-121799000D01*
X99232500Y-126937500D02*
X97065000Y-124770000D01*
%TO.N,Net-(D1-K)*%
X151250000Y-84580000D02*
X151250000Y-91725000D01*
%TO.N,Q0*%
X133078760Y-116131000D02*
X129501000Y-116131000D01*
X128350000Y-114980000D02*
X120730000Y-107360000D01*
X142800000Y-121250000D02*
X138197760Y-121250000D01*
X129501000Y-116131000D02*
X128350000Y-114980000D01*
X144150000Y-122600000D02*
X142800000Y-121250000D01*
X138197760Y-121250000D02*
X133078760Y-116131000D01*
%TO.N,Q1*%
X126250000Y-110250000D02*
X128000000Y-110250000D01*
X134310000Y-112440000D02*
X135250000Y-111500000D01*
X132440000Y-112440000D02*
X134310000Y-112440000D01*
X132440000Y-112440000D02*
X130890000Y-112440000D01*
X115700000Y-118950000D02*
X116000000Y-119250000D01*
X143000000Y-94540000D02*
X143000000Y-106210000D01*
X136750000Y-110000000D02*
X138239000Y-108511000D01*
X138239000Y-108511000D02*
X142999000Y-108511000D01*
X130890000Y-112440000D02*
X128350000Y-109900000D01*
X142999000Y-108511000D02*
X144150000Y-107360000D01*
X128000000Y-110250000D02*
X128350000Y-109900000D01*
X143000000Y-106210000D02*
X144150000Y-107360000D01*
X113025000Y-118950000D02*
X115700000Y-118950000D01*
%TO.N,Net-(D2-K)*%
X142750000Y-84580000D02*
X142750000Y-91750000D01*
X142750000Y-91750000D02*
X143000000Y-92000000D01*
%TO.N,Net-(D3-K)*%
X134250000Y-91750000D02*
X134500000Y-92000000D01*
X134250000Y-84830000D02*
X134250000Y-91750000D01*
%TO.N,Q2*%
X132440000Y-107360000D02*
X140060000Y-114980000D01*
X134500000Y-94540000D02*
X134500000Y-105300000D01*
X134500000Y-105300000D02*
X132440000Y-107360000D01*
%TO.N,Q3*%
X113025000Y-107240000D02*
X125750000Y-94515000D01*
X125750000Y-96250000D02*
X133750000Y-104250000D01*
X113025000Y-117050000D02*
X113025000Y-107240000D01*
X125750000Y-94515000D02*
X125750000Y-96250000D01*
%TO.N,Net-(D5-K)*%
X125250000Y-84830000D02*
X125250000Y-91475000D01*
X125250000Y-91475000D02*
X125750000Y-91975000D01*
%TO.N,Net-(U5-A)*%
X171830000Y-110250000D02*
X171500000Y-110250000D01*
X171500000Y-110250000D02*
X169619975Y-112130025D01*
X163750000Y-118750000D02*
X162390000Y-118750000D01*
X162200000Y-118560000D02*
X162200000Y-118700000D01*
X162200000Y-118700000D02*
X162250000Y-118750000D01*
X162390000Y-118750000D02*
X162200000Y-118560000D01*
%TO.N,Net-(U4-a)*%
X159100000Y-118560000D02*
X159060000Y-118560000D01*
X155480000Y-114980000D02*
X151770000Y-114980000D01*
X159060000Y-118560000D02*
X155480000Y-114980000D01*
%TO.N,Net-(U5-B)*%
X163500000Y-121250000D02*
X164750000Y-120000000D01*
X162300000Y-121250000D02*
X163500000Y-121250000D01*
X172290000Y-113250000D02*
X171830000Y-112790000D01*
X173750000Y-113250000D02*
X172290000Y-113250000D01*
%TO.N,Net-(U4-b)*%
X159000000Y-121250000D02*
X155270000Y-117520000D01*
X155270000Y-117520000D02*
X151770000Y-117520000D01*
X159200000Y-121250000D02*
X159000000Y-121250000D01*
%TO.N,Clock*%
X104702000Y-116750000D02*
X106902000Y-118950000D01*
X119810000Y-112440000D02*
X120730000Y-112440000D01*
X133200000Y-132200000D02*
X122281000Y-121281000D01*
X106902000Y-118950000D02*
X110750000Y-118950000D01*
X104000000Y-116750000D02*
X104702000Y-116750000D01*
X118750000Y-113500000D02*
X119810000Y-112440000D01*
X111800000Y-120000000D02*
X114250000Y-120000000D01*
X122281000Y-113991000D02*
X120730000Y-112440000D01*
X134250000Y-132200000D02*
X133200000Y-132200000D01*
X110750000Y-118950000D02*
X111800000Y-120000000D01*
X122281000Y-121281000D02*
X122281000Y-113991000D01*
%TO.N,Net-(U5-C)*%
X162550000Y-125250000D02*
X165599000Y-122201000D01*
X166511240Y-119021000D02*
X168139000Y-119021000D01*
X165599000Y-119933240D02*
X166511240Y-119021000D01*
X168139000Y-119021000D02*
X171830000Y-115330000D01*
X165599000Y-122201000D02*
X165599000Y-119933240D01*
%TO.N,Net-(U4-c)*%
X156960000Y-125250000D02*
X151770000Y-120060000D01*
X159450000Y-125250000D02*
X156960000Y-125250000D01*
%TO.N,Net-(U2A-J)*%
X136000000Y-132250000D02*
X137500000Y-132250000D01*
X120730000Y-120572240D02*
X130750000Y-130592240D01*
X120730000Y-120060000D02*
X120730000Y-120572240D01*
X130750000Y-130592240D02*
X130750000Y-130750000D01*
%TO.N,Net-(U2B-J)*%
X139799000Y-131249000D02*
X136486760Y-131249000D01*
X140750000Y-132200000D02*
X139799000Y-131249000D01*
X128350000Y-123112240D02*
X128350000Y-122600000D01*
X136486760Y-131249000D02*
X128350000Y-123112240D01*
%TO.N,Net-(U3A-J)*%
X144000000Y-132450000D02*
X144000000Y-131620000D01*
X144000000Y-131620000D02*
X132440000Y-120060000D01*
%TO.N,Net-(U3B-J)*%
X142599000Y-125139000D02*
X140060000Y-122600000D01*
X142599000Y-127799000D02*
X142599000Y-125139000D01*
X147250000Y-132450000D02*
X142599000Y-127799000D01*
%TO.N,Net-(R13-Pad1)*%
X133500000Y-138750000D02*
X130750000Y-136000000D01*
X130750000Y-136000000D02*
X130750000Y-135300000D01*
%TO.N,Net-(U5-D)*%
X166750000Y-124300000D02*
X166750000Y-120410000D01*
X162550000Y-128500000D02*
X166750000Y-124300000D01*
%TO.N,Net-(U4-d)*%
X159450000Y-128500000D02*
X159500000Y-128500000D01*
X159500000Y-128500000D02*
X153600000Y-122600000D01*
X153600000Y-122600000D02*
X151770000Y-122600000D01*
%TO.N,Net-(U4-e)*%
X157690000Y-115560000D02*
X157500000Y-115750000D01*
X153750000Y-125250000D02*
X151880000Y-125250000D01*
X158900000Y-115560000D02*
X157690000Y-115560000D01*
X151880000Y-125250000D02*
X151770000Y-125140000D01*
%TO.N,Net-(U5-E)*%
X162500000Y-115500000D02*
X164870000Y-117870000D01*
X162000000Y-115560000D02*
X162000000Y-115500000D01*
X162000000Y-115500000D02*
X162500000Y-115500000D01*
X164870000Y-117870000D02*
X166750000Y-117870000D01*
%TO.N,Net-(U4-f)*%
X158900000Y-109000000D02*
X159000000Y-109000000D01*
X158100000Y-109900000D02*
X151770000Y-109900000D01*
X159000000Y-109000000D02*
X158100000Y-109900000D01*
%TO.N,Net-(U5-F)*%
X162960000Y-109000000D02*
X166750000Y-112790000D01*
X162000000Y-109000000D02*
X162960000Y-109000000D01*
%TO.N,Net-(U5-G)*%
X162000000Y-112310000D02*
X162000000Y-112250000D01*
X162000000Y-112250000D02*
X163670000Y-112250000D01*
X163670000Y-112250000D02*
X166750000Y-115330000D01*
%TO.N,Net-(U4-g)*%
X151900000Y-112310000D02*
X151770000Y-112440000D01*
X158900000Y-112310000D02*
X151900000Y-112310000D01*
%TO.N,Net-(U7-DIS)*%
X86000000Y-122800000D02*
X86000000Y-126450000D01*
%TO.N,555*%
X101751000Y-127605870D02*
X101405870Y-127951000D01*
X101405870Y-127951000D02*
X99537480Y-127951000D01*
X103631240Y-118750000D02*
X101751000Y-120630240D01*
X97507480Y-125921000D02*
X90596000Y-125921000D01*
X90596000Y-125921000D02*
X89445000Y-124770000D01*
X101751000Y-120630240D02*
X101751000Y-127605870D01*
X104000000Y-118750000D02*
X103631240Y-118750000D01*
X99537480Y-127951000D02*
X97507480Y-125921000D01*
%TO.N,Reset*%
X110750000Y-117050000D02*
X112250000Y-115550000D01*
X112250000Y-115550000D02*
X112250000Y-114500000D01*
X130770000Y-114980000D02*
X130500000Y-115250000D01*
X118049000Y-113799000D02*
X119230000Y-114980000D01*
X119853240Y-111289000D02*
X118049000Y-113093240D01*
X119750000Y-113750000D02*
X119750000Y-114000000D01*
X122119000Y-111289000D02*
X119853240Y-111289000D01*
X132440000Y-114980000D02*
X130770000Y-114980000D01*
X128580000Y-117750000D02*
X128350000Y-117520000D01*
X128350000Y-117520000D02*
X122119000Y-111289000D01*
X119230000Y-114980000D02*
X120730000Y-114980000D01*
X130250000Y-117750000D02*
X128580000Y-117750000D01*
X140060000Y-117520000D02*
X137520000Y-114980000D01*
X118049000Y-113093240D02*
X118049000Y-113799000D01*
X119750000Y-114000000D02*
X120730000Y-114980000D01*
X137520000Y-114980000D02*
X132440000Y-114980000D01*
%TD*%
M02*
