M48
; DRILL file {KiCad 9.0.3} date 2025-12-16T11:32:47+0100
; FORMAT={-:-/ absolute / metric / decimal}
; #@! TF.CreationDate,2025-12-16T11:32:47+01:00
; #@! TF.GenerationSoftware,Kicad,Pcbnew,9.0.3
; #@! TF.FileFunction,MixedPlating,1,2
FMAT,2
METRIC
; #@! TA.AperFunction,Plated,PTH,ViaDrill
T1C0.300
; #@! TA.AperFunction,Plated,PTH,ComponentDrill
T2C0.800
; #@! TA.AperFunction,Plated,PTH,ComponentDrill
T3C0.900
; #@! TA.AperFunction,Plated,PTH,ComponentDrill
T4C1.100
; #@! TA.AperFunction,Plated,PTH,ComponentDrill
T5C1.200
; #@! TA.AperFunction,Plated,PTH,ComponentDrill
T6C1.400
; #@! TA.AperFunction,Plated,PTH,ComponentDrill
T7C1.500
; #@! TA.AperFunction,NonPlated,NPTH,ComponentDrill
T8C5.500
%
G90
G05
T1
X83.5Y-127.5
X87.5Y-124.5
X87.5Y-127.5
X92.25Y-122.25
X93.75Y-124.081
X95.0Y-123.0
X95.0Y-127.0
X99.0Y-118.5
X112.0Y-112.75
X112.25Y-114.5
X114.25Y-120.0
X116.0Y-119.25
X118.75Y-113.5
X119.75Y-113.75
X121.0Y-97.0
X126.25Y-107.75
X126.25Y-110.25
X129.0Y-105.0
X130.25Y-117.75
X130.5Y-115.25
X130.75Y-130.75
X133.75Y-104.25
X135.0Y-107.5
X135.25Y-111.5
X136.0Y-132.25
X136.75Y-110.0
X137.5Y-122.5
X138.0Y-119.5
X140.5Y-105.0
X141.999Y-114.0
X142.0Y-110.5
X144.0Y-105.0
X146.5Y-107.5
X146.5Y-112.5
X148.0Y-111.0
X149.0Y-112.5
X149.65Y-109.5
X153.75Y-125.25
X157.5Y-115.75
X163.75Y-118.75
X164.75Y-120.0
X169.62Y-112.13
X173.75Y-113.25
T2
X89.445Y-119.69
X89.445Y-122.23
X89.445Y-124.77
X89.445Y-127.31
X97.0Y-79.0
X97.065Y-119.69
X97.065Y-122.23
X97.065Y-124.77
X97.065Y-127.31
X99.0Y-79.0
X103.44Y-79.44
X103.44Y-81.98
X103.44Y-84.52
X103.44Y-87.06
X104.0Y-116.75
X104.0Y-118.75
X104.0Y-120.75
X111.06Y-79.44
X111.06Y-81.98
X111.06Y-84.52
X111.06Y-87.06
X118.5Y-81.0
X118.5Y-83.0
X120.73Y-107.36
X120.73Y-109.9
X120.73Y-112.44
X120.73Y-114.98
X120.73Y-117.52
X120.73Y-120.06
X120.73Y-122.6
X120.73Y-125.14
X125.25Y-74.67
X125.25Y-84.83
X128.35Y-107.36
X128.35Y-109.9
X128.35Y-112.44
X128.35Y-114.98
X128.35Y-117.52
X128.35Y-120.06
X128.35Y-122.6
X128.35Y-125.14
X132.44Y-107.36
X132.44Y-109.9
X132.44Y-112.44
X132.44Y-114.98
X132.44Y-117.52
X132.44Y-120.06
X132.44Y-122.6
X132.44Y-125.14
X134.25Y-74.67
X134.25Y-84.83
X140.06Y-107.36
X140.06Y-109.9
X140.06Y-112.44
X140.06Y-114.98
X140.06Y-117.52
X140.06Y-120.06
X140.06Y-122.6
X140.06Y-125.14
X142.75Y-74.42
X142.75Y-84.58
X144.15Y-107.36
X144.15Y-109.9
X144.15Y-112.44
X144.15Y-114.98
X144.15Y-117.52
X144.15Y-120.06
X144.15Y-122.6
X144.15Y-125.14
X151.25Y-74.42
X151.25Y-84.58
X151.77Y-107.36
X151.77Y-109.9
X151.77Y-112.44
X151.77Y-114.98
X151.77Y-117.52
X151.77Y-120.06
X151.77Y-122.6
X151.77Y-125.14
X166.75Y-110.25
X166.75Y-112.79
X166.75Y-115.33
X166.75Y-117.87
X166.75Y-120.41
X171.83Y-110.25
X171.83Y-112.79
X171.83Y-115.33
X171.83Y-117.87
X171.83Y-120.41
T3
X125.75Y-91.975
X125.75Y-94.515
X134.5Y-92.0
X134.5Y-94.54
X143.0Y-92.0
X143.0Y-94.54
X151.25Y-91.725
X151.25Y-94.265
T4
X102.55Y-74.75
X115.25Y-74.75
X133.5Y-138.75
X133.5Y-143.25
X140.0Y-138.75
X140.0Y-143.25
T5
X116.0Y-90.0
X116.0Y-93.0
T6
X90.367Y-92.25
X90.367Y-97.25
T7
X104.0Y-114.65
X104.0Y-122.85
T8
X89.0Y-80.0
X89.0Y-140.0
X169.0Y-80.0
X169.0Y-140.0
M30
