%TF.GenerationSoftware,KiCad,Pcbnew,9.0.3*%
%TF.CreationDate,2025-12-16T11:33:00+01:00*%
%TF.ProjectId,PTP_Adrian_Pavlovic_Project1,5054505f-4164-4726-9961-6e5f5061766c,rev?*%
%TF.SameCoordinates,Original*%
%TF.FileFunction,Soldermask,Top*%
%TF.FilePolarity,Negative*%
%FSLAX46Y46*%
G04 Gerber Fmt 4.6, Leading zero omitted, Abs format (unit mm)*
G04 Created by KiCad (PCBNEW 9.0.3) date 2025-12-16 11:33:00*
%MOMM*%
%LPD*%
G01*
G04 APERTURE LIST*
G04 Aperture macros list*
%AMRoundRect*
0 Rectangle with rounded corners*
0 $1 Rounding radius*
0 $2 $3 $4 $5 $6 $7 $8 $9 X,Y pos of 4 corners*
0 Add a 4 corners polygon primitive as box body*
4,1,4,$2,$3,$4,$5,$6,$7,$8,$9,$2,$3,0*
0 Add four circle primitives for the rounded corners*
1,1,$1+$1,$2,$3*
1,1,$1+$1,$4,$5*
1,1,$1+$1,$6,$7*
1,1,$1+$1,$8,$9*
0 Add four rect primitives between the rounded corners*
20,1,$1+$1,$2,$3,$4,$5,0*
20,1,$1+$1,$4,$5,$6,$7,0*
20,1,$1+$1,$6,$7,$8,$9,0*
20,1,$1+$1,$8,$9,$2,$3,0*%
G04 Aperture macros list end*
%ADD10RoundRect,0.250000X-0.950000X-0.550000X0.950000X-0.550000X0.950000X0.550000X-0.950000X0.550000X0*%
%ADD11O,2.400000X1.600000*%
%ADD12RoundRect,0.250000X-0.550000X-0.550000X0.550000X-0.550000X0.550000X0.550000X-0.550000X0.550000X0*%
%ADD13C,1.600000*%
%ADD14R,1.800000X1.800000*%
%ADD15C,1.800000*%
%ADD16RoundRect,0.250000X0.625000X-0.400000X0.625000X0.400000X-0.625000X0.400000X-0.625000X-0.400000X0*%
%ADD17RoundRect,0.250000X-0.400000X-0.625000X0.400000X-0.625000X0.400000X0.625000X-0.400000X0.625000X0*%
%ADD18C,2.000000*%
%ADD19RoundRect,0.250000X-0.625000X0.400000X-0.625000X-0.400000X0.625000X-0.400000X0.625000X0.400000X0*%
%ADD20RoundRect,0.150000X0.512500X0.150000X-0.512500X0.150000X-0.512500X-0.150000X0.512500X-0.150000X0*%
%ADD21RoundRect,0.250000X0.650000X-0.412500X0.650000X0.412500X-0.650000X0.412500X-0.650000X-0.412500X0*%
%ADD22R,1.600000X1.600000*%
%ADD23O,3.500000X2.200000*%
%ADD24R,2.500000X1.500000*%
%ADD25O,2.500000X1.500000*%
%ADD26RoundRect,0.250000X0.550000X-0.550000X0.550000X0.550000X-0.550000X0.550000X-0.550000X-0.550000X0*%
%ADD27RoundRect,0.250000X-0.650000X0.412500X-0.650000X-0.412500X0.650000X-0.412500X0.650000X0.412500X0*%
%ADD28C,5.500000*%
%ADD29RoundRect,0.250001X1.149999X-1.149999X1.149999X1.149999X-1.149999X1.149999X-1.149999X-1.149999X0*%
%ADD30C,2.800000*%
%ADD31RoundRect,0.250000X0.412500X0.650000X-0.412500X0.650000X-0.412500X-0.650000X0.412500X-0.650000X0*%
%ADD32C,2.400000*%
%ADD33RoundRect,0.250000X0.950000X0.550000X-0.950000X0.550000X-0.950000X-0.550000X0.950000X-0.550000X0*%
%ADD34RoundRect,0.249999X-0.850001X-0.850001X0.850001X-0.850001X0.850001X0.850001X-0.850001X0.850001X0*%
%ADD35C,2.200000*%
%ADD36RoundRect,0.250000X0.550000X0.550000X-0.550000X0.550000X-0.550000X-0.550000X0.550000X-0.550000X0*%
G04 APERTURE END LIST*
D10*
%TO.C,U2*%
X120730000Y-107360000D03*
D11*
X120730000Y-109900000D03*
X120730000Y-112440000D03*
X120730000Y-114980000D03*
X120730000Y-117520000D03*
X120730000Y-120060000D03*
X120730000Y-122600000D03*
X120730000Y-125140000D03*
X128350000Y-125140000D03*
X128350000Y-122600000D03*
X128350000Y-120060000D03*
X128350000Y-117520000D03*
X128350000Y-114980000D03*
X128350000Y-112440000D03*
X128350000Y-109900000D03*
X128350000Y-107360000D03*
%TD*%
D12*
%TO.C,U7*%
X89445000Y-119690000D03*
D13*
X89445000Y-122230000D03*
X89445000Y-124770000D03*
X89445000Y-127310000D03*
X97065000Y-127310000D03*
X97065000Y-124770000D03*
X97065000Y-122230000D03*
X97065000Y-119690000D03*
%TD*%
D14*
%TO.C,D1*%
X151250000Y-91725000D03*
D15*
X151250000Y-94265000D03*
%TD*%
D16*
%TO.C,R9*%
X137500000Y-135350000D03*
X137500000Y-132250000D03*
%TD*%
D17*
%TO.C,R16*%
X158900000Y-115560000D03*
X162000000Y-115560000D03*
%TD*%
D18*
%TO.C,SW1*%
X140000000Y-143250000D03*
X133500000Y-143250000D03*
X140000000Y-138750000D03*
X133500000Y-138750000D03*
%TD*%
D13*
%TO.C,R1*%
X151250000Y-84580000D03*
X151250000Y-74420000D03*
%TD*%
D16*
%TO.C,R11*%
X144000000Y-135550000D03*
X144000000Y-132450000D03*
%TD*%
D17*
%TO.C,R15*%
X158900000Y-105560000D03*
X162000000Y-105560000D03*
%TD*%
D19*
%TO.C,R19*%
X86000000Y-119700000D03*
X86000000Y-122800000D03*
%TD*%
D14*
%TO.C,D2*%
X143000000Y-92000000D03*
D15*
X143000000Y-94540000D03*
%TD*%
D17*
%TO.C,R8*%
X159450000Y-125250000D03*
X162550000Y-125250000D03*
%TD*%
D14*
%TO.C,D3*%
X134500000Y-92000000D03*
D15*
X134500000Y-94540000D03*
%TD*%
D20*
%TO.C,U6*%
X113025000Y-118950000D03*
X113025000Y-118000000D03*
X113025000Y-117050000D03*
X110750000Y-117050000D03*
X110750000Y-118000000D03*
X110750000Y-118950000D03*
%TD*%
D17*
%TO.C,R6*%
X159200000Y-121250000D03*
X162300000Y-121250000D03*
%TD*%
%TO.C,R14*%
X159450000Y-128500000D03*
X162550000Y-128500000D03*
%TD*%
%TO.C,R17*%
X158900000Y-109000000D03*
X162000000Y-109000000D03*
%TD*%
D21*
%TO.C,C3*%
X127000000Y-135375000D03*
X127000000Y-132250000D03*
%TD*%
D22*
%TO.C,U5*%
X166750000Y-110250000D03*
D13*
X166750000Y-112790000D03*
X166750000Y-115330000D03*
X166750000Y-117870000D03*
X166750000Y-120410000D03*
X171830000Y-120410000D03*
X171830000Y-117870000D03*
X171830000Y-115330000D03*
X171830000Y-112790000D03*
X171830000Y-110250000D03*
%TD*%
D23*
%TO.C,SW2*%
X104000000Y-114650000D03*
X104000000Y-122850000D03*
D24*
X104000000Y-116750000D03*
D25*
X104000000Y-118750000D03*
X104000000Y-120750000D03*
%TD*%
D26*
%TO.C,C2*%
X118500000Y-83000000D03*
D13*
X118500000Y-81000000D03*
%TD*%
D27*
%TO.C,C5*%
X100500000Y-126937500D03*
X100500000Y-130062500D03*
%TD*%
D28*
%TO.C,H2*%
X169000000Y-80000000D03*
%TD*%
D13*
%TO.C,R4*%
X125250000Y-84830000D03*
X125250000Y-74670000D03*
%TD*%
D29*
%TO.C,J1*%
X90367500Y-97250000D03*
D30*
X90367500Y-92250000D03*
%TD*%
D14*
%TO.C,D5*%
X125750000Y-91975000D03*
D15*
X125750000Y-94515000D03*
%TD*%
D28*
%TO.C,H3*%
X89000000Y-140000000D03*
%TD*%
D10*
%TO.C,U3*%
X132440000Y-107360000D03*
D11*
X132440000Y-109900000D03*
X132440000Y-112440000D03*
X132440000Y-114980000D03*
X132440000Y-117520000D03*
X132440000Y-120060000D03*
X132440000Y-122600000D03*
X132440000Y-125140000D03*
X140060000Y-125140000D03*
X140060000Y-122600000D03*
X140060000Y-120060000D03*
X140060000Y-117520000D03*
X140060000Y-114980000D03*
X140060000Y-112440000D03*
X140060000Y-109900000D03*
X140060000Y-107360000D03*
%TD*%
D10*
%TO.C,U4*%
X144150000Y-107360000D03*
D11*
X144150000Y-109900000D03*
X144150000Y-112440000D03*
X144150000Y-114980000D03*
X144150000Y-117520000D03*
X144150000Y-120060000D03*
X144150000Y-122600000D03*
X144150000Y-125140000D03*
X151770000Y-125140000D03*
X151770000Y-122600000D03*
X151770000Y-120060000D03*
X151770000Y-117520000D03*
X151770000Y-114980000D03*
X151770000Y-112440000D03*
X151770000Y-109900000D03*
X151770000Y-107360000D03*
%TD*%
D17*
%TO.C,R18*%
X158900000Y-112310000D03*
X162000000Y-112310000D03*
%TD*%
D16*
%TO.C,R12*%
X147250000Y-135550000D03*
X147250000Y-132450000D03*
%TD*%
D31*
%TO.C,C4*%
X94812500Y-131000000D03*
X91687500Y-131000000D03*
%TD*%
D32*
%TO.C,L1*%
X116000000Y-93000000D03*
X116000000Y-90000000D03*
%TD*%
D28*
%TO.C,H4*%
X169000000Y-140000000D03*
%TD*%
D33*
%TO.C,U1*%
X111060000Y-87060000D03*
D11*
X111060000Y-84520000D03*
X111060000Y-81980000D03*
X111060000Y-79440000D03*
X103440000Y-79440000D03*
X103440000Y-81980000D03*
X103440000Y-84520000D03*
X103440000Y-87060000D03*
%TD*%
D16*
%TO.C,R7*%
X134250000Y-135300000D03*
X134250000Y-132200000D03*
%TD*%
%TO.C,R13*%
X130750000Y-135300000D03*
X130750000Y-132200000D03*
%TD*%
%TO.C,R10*%
X140750000Y-135300000D03*
X140750000Y-132200000D03*
%TD*%
D17*
%TO.C,R5*%
X159100000Y-118560000D03*
X162200000Y-118560000D03*
%TD*%
D28*
%TO.C,H1*%
X89000000Y-80000000D03*
%TD*%
D34*
%TO.C,D4*%
X102550000Y-74750000D03*
D35*
X115250000Y-74750000D03*
%TD*%
D13*
%TO.C,R2*%
X142750000Y-84580000D03*
X142750000Y-74420000D03*
%TD*%
D36*
%TO.C,C1*%
X99000000Y-79000000D03*
D13*
X97000000Y-79000000D03*
%TD*%
D19*
%TO.C,R20*%
X86000000Y-126450000D03*
X86000000Y-129550000D03*
%TD*%
D13*
%TO.C,R3*%
X134250000Y-84830000D03*
X134250000Y-74670000D03*
%TD*%
M02*
